<mxfile host="app.diagrams.net" modified="2024-03-19T17:26:27.094Z" agent="Mozilla/5.0 (Windows NT 10.0; Win64; x64) AppleWebKit/537.36 (KHTML, like Gecko) Chrome/121.0.0.0 Safari/537.36 OPR/107.0.0.0" etag="iJ94Eka3I1g8KI_JBde-" version="24.0.7" type="google">
  <diagram id="C5RBs43oDa-KdzZeNtuy" name="Page-1">
    <mxGraphModel grid="1" page="1" gridSize="10" guides="1" tooltips="1" connect="1" arrows="1" fold="1" pageScale="1" pageWidth="827" pageHeight="1169" math="0" shadow="0">
      <root>
        <mxCell id="WIyWlLk6GJQsqaUBKTNV-0" />
        <mxCell id="WIyWlLk6GJQsqaUBKTNV-1" parent="WIyWlLk6GJQsqaUBKTNV-0" />
        <mxCell id="Q8emwVFqiGL97IJXresg-11" style="edgeStyle=orthogonalEdgeStyle;rounded=0;orthogonalLoop=1;jettySize=auto;html=1;exitX=0.5;exitY=1;exitDx=0;exitDy=0;entryX=0.5;entryY=0;entryDx=0;entryDy=0;" edge="1" parent="WIyWlLk6GJQsqaUBKTNV-1" source="Q8emwVFqiGL97IJXresg-0" target="Q8emwVFqiGL97IJXresg-1">
          <mxGeometry relative="1" as="geometry" />
        </mxCell>
        <mxCell id="Q8emwVFqiGL97IJXresg-0" value="START" style="ellipse;whiteSpace=wrap;html=1;" vertex="1" parent="WIyWlLk6GJQsqaUBKTNV-1">
          <mxGeometry x="190" y="80" width="50" height="50" as="geometry" />
        </mxCell>
        <mxCell id="Q8emwVFqiGL97IJXresg-10" style="edgeStyle=orthogonalEdgeStyle;rounded=0;orthogonalLoop=1;jettySize=auto;html=1;exitX=0.5;exitY=1;exitDx=0;exitDy=0;entryX=0.5;entryY=0;entryDx=0;entryDy=0;" edge="1" parent="WIyWlLk6GJQsqaUBKTNV-1" source="Q8emwVFqiGL97IJXresg-1" target="Q8emwVFqiGL97IJXresg-2">
          <mxGeometry relative="1" as="geometry" />
        </mxCell>
        <mxCell id="Q8emwVFqiGL97IJXresg-1" value="Order from Dining Room comes in" style="rounded=1;whiteSpace=wrap;html=1;" vertex="1" parent="WIyWlLk6GJQsqaUBKTNV-1">
          <mxGeometry x="155" y="170" width="120" height="60" as="geometry" />
        </mxCell>
        <mxCell id="Q8emwVFqiGL97IJXresg-17" value="" style="edgeStyle=orthogonalEdgeStyle;rounded=0;orthogonalLoop=1;jettySize=auto;html=1;" edge="1" parent="WIyWlLk6GJQsqaUBKTNV-1" source="Q8emwVFqiGL97IJXresg-2" target="Q8emwVFqiGL97IJXresg-16">
          <mxGeometry relative="1" as="geometry" />
        </mxCell>
        <mxCell id="Q8emwVFqiGL97IJXresg-2" value="Server from Dining Room gives order to Kitchen" style="rounded=1;whiteSpace=wrap;html=1;" vertex="1" parent="WIyWlLk6GJQsqaUBKTNV-1">
          <mxGeometry x="155" y="270" width="120" height="60" as="geometry" />
        </mxCell>
        <mxCell id="Q8emwVFqiGL97IJXresg-19" value="" style="edgeStyle=orthogonalEdgeStyle;rounded=0;orthogonalLoop=1;jettySize=auto;html=1;" edge="1" parent="WIyWlLk6GJQsqaUBKTNV-1" source="Q8emwVFqiGL97IJXresg-16" target="Q8emwVFqiGL97IJXresg-18">
          <mxGeometry relative="1" as="geometry" />
        </mxCell>
        <mxCell id="Q8emwVFqiGL97IJXresg-16" value="What type of food?" style="rounded=1;whiteSpace=wrap;html=1;" vertex="1" parent="WIyWlLk6GJQsqaUBKTNV-1">
          <mxGeometry x="155" y="370" width="120" height="60" as="geometry" />
        </mxCell>
        <mxCell id="Q8emwVFqiGL97IJXresg-27" value="" style="edgeStyle=orthogonalEdgeStyle;rounded=0;orthogonalLoop=1;jettySize=auto;html=1;" edge="1" parent="WIyWlLk6GJQsqaUBKTNV-1" source="Q8emwVFqiGL97IJXresg-18" target="Q8emwVFqiGL97IJXresg-26">
          <mxGeometry relative="1" as="geometry" />
        </mxCell>
        <mxCell id="Q8emwVFqiGL97IJXresg-35" value="No" style="edgeLabel;html=1;align=center;verticalAlign=middle;resizable=0;points=[];" connectable="0" vertex="1" parent="Q8emwVFqiGL97IJXresg-27">
          <mxGeometry x="-0.1" y="-1" relative="1" as="geometry">
            <mxPoint as="offset" />
          </mxGeometry>
        </mxCell>
        <mxCell id="Q8emwVFqiGL97IJXresg-50" value="" style="edgeStyle=orthogonalEdgeStyle;rounded=0;orthogonalLoop=1;jettySize=auto;html=1;" edge="1" parent="WIyWlLk6GJQsqaUBKTNV-1" source="Q8emwVFqiGL97IJXresg-18" target="Q8emwVFqiGL97IJXresg-49">
          <mxGeometry relative="1" as="geometry" />
        </mxCell>
        <mxCell id="Q8emwVFqiGL97IJXresg-51" value="Yes" style="edgeLabel;html=1;align=center;verticalAlign=middle;resizable=0;points=[];" connectable="0" vertex="1" parent="Q8emwVFqiGL97IJXresg-50">
          <mxGeometry x="0.08" y="-1" relative="1" as="geometry">
            <mxPoint as="offset" />
          </mxGeometry>
        </mxCell>
        <mxCell id="Q8emwVFqiGL97IJXresg-55" style="edgeStyle=orthogonalEdgeStyle;rounded=0;orthogonalLoop=1;jettySize=auto;html=1;exitX=0.5;exitY=1;exitDx=0;exitDy=0;entryX=0.5;entryY=1;entryDx=0;entryDy=0;" edge="1" parent="WIyWlLk6GJQsqaUBKTNV-1" source="Q8emwVFqiGL97IJXresg-18" target="Q8emwVFqiGL97IJXresg-16">
          <mxGeometry relative="1" as="geometry">
            <Array as="points">
              <mxPoint x="390" y="450" />
              <mxPoint x="215" y="450" />
            </Array>
          </mxGeometry>
        </mxCell>
        <mxCell id="Q8emwVFqiGL97IJXresg-18" value="pastry?" style="rhombus;whiteSpace=wrap;html=1;rounded=1;" vertex="1" parent="WIyWlLk6GJQsqaUBKTNV-1">
          <mxGeometry x="350" y="360" width="80" height="80" as="geometry" />
        </mxCell>
        <mxCell id="Q8emwVFqiGL97IJXresg-29" value="" style="edgeStyle=orthogonalEdgeStyle;rounded=0;orthogonalLoop=1;jettySize=auto;html=1;" edge="1" parent="WIyWlLk6GJQsqaUBKTNV-1" source="Q8emwVFqiGL97IJXresg-26" target="Q8emwVFqiGL97IJXresg-28">
          <mxGeometry relative="1" as="geometry" />
        </mxCell>
        <mxCell id="Q8emwVFqiGL97IJXresg-40" value="No" style="edgeLabel;html=1;align=center;verticalAlign=middle;resizable=0;points=[];" connectable="0" vertex="1" parent="Q8emwVFqiGL97IJXresg-29">
          <mxGeometry x="-0.0182" relative="1" as="geometry">
            <mxPoint as="offset" />
          </mxGeometry>
        </mxCell>
        <mxCell id="Q8emwVFqiGL97IJXresg-46" value="" style="edgeStyle=orthogonalEdgeStyle;rounded=0;orthogonalLoop=1;jettySize=auto;html=1;" edge="1" parent="WIyWlLk6GJQsqaUBKTNV-1" source="Q8emwVFqiGL97IJXresg-26" target="Q8emwVFqiGL97IJXresg-45">
          <mxGeometry relative="1" as="geometry" />
        </mxCell>
        <mxCell id="Q8emwVFqiGL97IJXresg-47" value="Yes" style="edgeLabel;html=1;align=center;verticalAlign=middle;resizable=0;points=[];" connectable="0" vertex="1" parent="Q8emwVFqiGL97IJXresg-46">
          <mxGeometry x="0.04" y="-2" relative="1" as="geometry">
            <mxPoint as="offset" />
          </mxGeometry>
        </mxCell>
        <mxCell id="Q8emwVFqiGL97IJXresg-54" style="edgeStyle=orthogonalEdgeStyle;rounded=0;orthogonalLoop=1;jettySize=auto;html=1;exitX=0;exitY=0.5;exitDx=0;exitDy=0;entryX=0.5;entryY=1;entryDx=0;entryDy=0;" edge="1" parent="WIyWlLk6GJQsqaUBKTNV-1" source="Q8emwVFqiGL97IJXresg-26" target="Q8emwVFqiGL97IJXresg-16">
          <mxGeometry relative="1" as="geometry" />
        </mxCell>
        <mxCell id="Q8emwVFqiGL97IJXresg-26" value="hearty food?" style="rhombus;whiteSpace=wrap;html=1;rounded=1;" vertex="1" parent="WIyWlLk6GJQsqaUBKTNV-1">
          <mxGeometry x="350" y="210" width="80" height="80" as="geometry" />
        </mxCell>
        <mxCell id="Q8emwVFqiGL97IJXresg-44" value="" style="edgeStyle=orthogonalEdgeStyle;rounded=0;orthogonalLoop=1;jettySize=auto;html=1;" edge="1" parent="WIyWlLk6GJQsqaUBKTNV-1" source="Q8emwVFqiGL97IJXresg-28" target="Q8emwVFqiGL97IJXresg-43">
          <mxGeometry relative="1" as="geometry" />
        </mxCell>
        <mxCell id="Q8emwVFqiGL97IJXresg-48" value="Yes" style="edgeLabel;html=1;align=center;verticalAlign=middle;resizable=0;points=[];" connectable="0" vertex="1" parent="Q8emwVFqiGL97IJXresg-44">
          <mxGeometry x="0.12" relative="1" as="geometry">
            <mxPoint as="offset" />
          </mxGeometry>
        </mxCell>
        <mxCell id="Q8emwVFqiGL97IJXresg-53" style="edgeStyle=orthogonalEdgeStyle;rounded=0;orthogonalLoop=1;jettySize=auto;html=1;exitX=0;exitY=0.5;exitDx=0;exitDy=0;entryX=0.5;entryY=1;entryDx=0;entryDy=0;" edge="1" parent="WIyWlLk6GJQsqaUBKTNV-1" source="Q8emwVFqiGL97IJXresg-28" target="Q8emwVFqiGL97IJXresg-16">
          <mxGeometry relative="1" as="geometry" />
        </mxCell>
        <mxCell id="Q8emwVFqiGL97IJXresg-28" value="pantries?" style="rhombus;whiteSpace=wrap;html=1;rounded=1;" vertex="1" parent="WIyWlLk6GJQsqaUBKTNV-1">
          <mxGeometry x="350" y="65" width="80" height="80" as="geometry" />
        </mxCell>
        <mxCell id="Q8emwVFqiGL97IJXresg-61" style="edgeStyle=orthogonalEdgeStyle;rounded=0;orthogonalLoop=1;jettySize=auto;html=1;exitX=1;exitY=0.5;exitDx=0;exitDy=0;entryX=0;entryY=0.5;entryDx=0;entryDy=0;" edge="1" parent="WIyWlLk6GJQsqaUBKTNV-1" source="Q8emwVFqiGL97IJXresg-43" target="Q8emwVFqiGL97IJXresg-56">
          <mxGeometry relative="1" as="geometry" />
        </mxCell>
        <mxCell id="Q8emwVFqiGL97IJXresg-43" value="Larry and Laura prepare the food" style="whiteSpace=wrap;html=1;rounded=1;" vertex="1" parent="WIyWlLk6GJQsqaUBKTNV-1">
          <mxGeometry x="480" y="75" width="120" height="60" as="geometry" />
        </mxCell>
        <mxCell id="Q8emwVFqiGL97IJXresg-58" style="edgeStyle=orthogonalEdgeStyle;rounded=0;orthogonalLoop=1;jettySize=auto;html=1;exitX=1;exitY=0.5;exitDx=0;exitDy=0;entryX=0;entryY=0.5;entryDx=0;entryDy=0;" edge="1" parent="WIyWlLk6GJQsqaUBKTNV-1" source="Q8emwVFqiGL97IJXresg-45" target="Q8emwVFqiGL97IJXresg-56">
          <mxGeometry relative="1" as="geometry" />
        </mxCell>
        <mxCell id="Q8emwVFqiGL97IJXresg-45" value="Charles prepares the food" style="whiteSpace=wrap;html=1;rounded=1;" vertex="1" parent="WIyWlLk6GJQsqaUBKTNV-1">
          <mxGeometry x="480" y="220" width="120" height="60" as="geometry" />
        </mxCell>
        <mxCell id="Q8emwVFqiGL97IJXresg-60" style="edgeStyle=orthogonalEdgeStyle;rounded=0;orthogonalLoop=1;jettySize=auto;html=1;exitX=1;exitY=0.5;exitDx=0;exitDy=0;entryX=0;entryY=0.5;entryDx=0;entryDy=0;" edge="1" parent="WIyWlLk6GJQsqaUBKTNV-1" source="Q8emwVFqiGL97IJXresg-49" target="Q8emwVFqiGL97IJXresg-56">
          <mxGeometry relative="1" as="geometry" />
        </mxCell>
        <mxCell id="Q8emwVFqiGL97IJXresg-49" value="Susan prepares the food" style="whiteSpace=wrap;html=1;rounded=1;" vertex="1" parent="WIyWlLk6GJQsqaUBKTNV-1">
          <mxGeometry x="480" y="370" width="120" height="60" as="geometry" />
        </mxCell>
        <mxCell id="Q8emwVFqiGL97IJXresg-63" style="edgeStyle=orthogonalEdgeStyle;rounded=0;orthogonalLoop=1;jettySize=auto;html=1;exitX=1;exitY=0.5;exitDx=0;exitDy=0;entryX=0;entryY=0.5;entryDx=0;entryDy=0;" edge="1" parent="WIyWlLk6GJQsqaUBKTNV-1" source="Q8emwVFqiGL97IJXresg-56" target="Q8emwVFqiGL97IJXresg-62">
          <mxGeometry relative="1" as="geometry" />
        </mxCell>
        <mxCell id="Q8emwVFqiGL97IJXresg-56" value="Order goes to Server" style="rounded=1;whiteSpace=wrap;html=1;" vertex="1" parent="WIyWlLk6GJQsqaUBKTNV-1">
          <mxGeometry x="707" y="220" width="120" height="60" as="geometry" />
        </mxCell>
        <mxCell id="Q8emwVFqiGL97IJXresg-62" value="END" style="ellipse;whiteSpace=wrap;html=1;" vertex="1" parent="WIyWlLk6GJQsqaUBKTNV-1">
          <mxGeometry x="880" y="225" width="50" height="50" as="geometry" />
        </mxCell>
      </root>
    </mxGraphModel>
  </diagram>
</mxfile>
